<svg width="40" height="40" viewBox="0 0 40 40" fill="none" xmlns="http://www.w3.org/2000/svg">
<g filter="url(#filter0_i_2482_830)">
<path d="M20 0C8.95277 0 0 8.95277 0 20C0 31.0472 8.95277 40 20 40C31.0472 40 40 31.0472 40 20C40 8.95277 31.0472 0 20 0ZM22.9979 29.692C14.3326 25.4209 12.0739 17.7413 11.7454 14.9487C11.4168 12.1561 16.2628 9.69199 16.2628 9.69199L19.3018 14.8665C19.3018 14.8665 16.0164 16.6324 16.4682 17.577C18.8912 22.6694 22.0123 24.5585 22.0123 24.5585C23.039 24.9281 25.2977 22.423 25.2977 22.423L29.6509 26.5298C29.692 26.5298 26.037 31.1704 22.9979 29.692Z" fill="#444638"/>
</g>
<defs>
<filter id="filter0_i_2482_830" x="0" y="0" width="40" height="40" filterUnits="userSpaceOnUse" color-interpolation-filters="sRGB">
<feFlood flood-opacity="0" result="BackgroundImageFix"/>
<feBlend mode="normal" in="SourceGraphic" in2="BackgroundImageFix" result="shape"/>
<feColorMatrix in="SourceAlpha" type="matrix" values="0 0 0 0 0 0 0 0 0 0 0 0 0 0 0 0 0 0 127 0" result="hardAlpha"/>
<feOffset/>
<feGaussianBlur stdDeviation="1"/>
<feComposite in2="hardAlpha" operator="arithmetic" k2="-1" k3="1"/>
<feColorMatrix type="matrix" values="0 0 0 0 0 0 0 0 0 0 0 0 0 0 0 0 0 0 0.25 0"/>
<feBlend mode="normal" in2="shape" result="effect1_innerShadow_2482_830"/>
</filter>
</defs>
</svg>
